# xmcd CD database file
#
# Track frame offsets:
#	150
#	8945
#	19555
#	33140
#	44257
#	56580
#	71670
#	88920
#	97565
#	108330
#	119150
#	131687
#
# Disc length: 1905 seconds
#
# Revision: 0
# Processed by: cddbd v1.5.2PL0 Copyright (c) Steve Scherf et al.
# Submitted via: CDex 1.70beta2
#
DISCID=97076f0c
DTITLE=Various Artist -  - Das Lied der Heimat - CD - 1
DYEAR=1993
DGENRE=Volksmusik
TTITLE0=Drei gute Freunde sind wir - Emser Buaba
TTITLE1=Komm her mein Schatz - Tiroler Nachtschwärmer
TTITLE2=Ich sage dir Adieu - Die Alpenfrieden
TTITLE3=Jubiläumswalzer - Original Almrauschklang  
TTITLE4=Alles kommt mal wieder - Lydia Huber
TTITLE5=Sabrina - Neustifter Spitzbuam
TTITLE6=Das Mädchen mit den erloschenen Augen - Kastelruther Spatzen
TTITLE7=Jetzt san d' Wadlbeisser da - Wadlbeisser
TTITLE8=Wer einmal lügt - Alpenland Trio+
TTITLE9=Freunde wir feiern heute - Original - Bregenzerwälder Dorfmusikanten
TTITLE10=D' Lechtaler feiern - Original Lechtaler Buam
TTITLE11=Mit viel Schwung - Inntaler Musikanten
EXTD=YEAR: 1993
EXTT0=
EXTT1=
EXTT2=
EXTT3=
EXTT4=
EXTT5=
EXTT6=
EXTT7=
EXTT8=
EXTT9=
EXTT10=
EXTT11=
PLAYORDER=
